<svg width="63" height="126" viewBox="0 0 63 126" fill="none" xmlns="http://www.w3.org/2000/svg">
<path d="M25.2287 119.084C35.9179 119.084 44.5833 118.157 44.5833 117.013C44.5833 115.869 35.9179 114.942 25.2287 114.942C14.5394 114.942 5.87402 115.869 5.87402 117.013C5.87402 118.157 14.5394 119.084 25.2287 119.084Z" fill="url(#paint0_radial_312_527)"/>
<path d="M22.2983 18.1564H29.8917L36.8078 11.4097H42.5126L41.653 103.181L22.2983 82.6152V18.1564Z" fill="#D04190"/>
<mask id="mask0_312_527" style="mask-type:luminance" maskUnits="userSpaceOnUse" x="25" y="0" width="15" height="98">
<path d="M39.2302 0H25.5803V75.699L38.7092 97.6584L39.2302 0Z" fill="white"/>
</mask>
<g mask="url(#mask0_312_527)">
<path d="M25.5803 0H39.2302V97.6584H25.5803V0Z" fill="url(#paint1_linear_312_527)"/>
</g>
<path d="M62.3882 10.8887V117.013L9.84668 82.2765V41.3141L62.3882 10.8887Z" fill="#772778"/>
<path d="M18.6643 57.7251V45.4559H19.7063V51.1607H28.3416V45.4559H29.3836V57.7251H28.3416V52.0203H19.7063V57.7251H18.6643ZM33.3561 53.414L36.2867 47.0189L38.7093 52.5413H35.427L34.9061 53.414H39.2303L41.1318 57.7251H42.1738L36.469 45.2866H36.1174L30.4126 57.7251H31.4545L33.3561 53.414ZM43.2028 57.7251V45.4559H44.4141V56.8655H50.4705V57.7251H43.2028ZM52.3721 57.7251V45.4559H53.4011V56.8655H59.4576V57.7251H52.3721Z" fill="white"/>
<path d="M0 75.7513V47.006L0.859628 46.498V76.3243L0 75.7513ZM3.28222 77.9264V45.1044L4.14184 44.5964V78.4994L3.28222 77.9264ZM6.56443 80.1015V43.2028L7.42406 42.6948V80.6615L6.56443 80.1015Z" fill="#29ADE3"/>
<mask id="mask1_312_527" style="mask-type:luminance" maskUnits="userSpaceOnUse" x="17" y="59" width="43" height="59">
<path d="M59.9655 67.2328V59.6265H18.6643C17.453 62.2184 17.453 64.8103 18.6643 67.4021H48.9076C37.8497 80.7133 18.6643 94.5454 19.8756 117.351H29.5529C27.2997 94.1938 47.1753 82.2762 59.9655 67.2328Z" fill="white"/>
</mask>
<g mask="url(#mask1_312_527)">
<path d="M17.4531 59.6265H59.7963V117.351H17.4531V59.6265Z" fill="url(#paint2_linear_312_527)"/>
</g>
<path d="M37.0552 122.262C37.0552 122.262 36.417 121.689 35.7136 121.78C35.7136 121.78 35.1015 121.923 35.3099 122.496C35.5443 123.122 37.3417 123.564 37.2636 124.828C37.1984 125.727 36.2737 125.961 36.2737 125.961C36.2737 125.961 35.2187 126.195 34.5675 125.518V124.593C34.5675 124.593 35.0884 125.336 35.9871 125.297C36.6514 125.206 36.5212 124.606 36.5212 124.606C36.1955 123.63 34.5284 123.473 34.5675 122.275C34.5675 122.275 34.5544 121.142 36.0132 121.155C36.0132 121.155 36.6644 121.155 37.0552 121.467V122.262ZM2.08395 123.682C2.93055 123.369 2.87845 122.536 2.87845 122.536C2.87845 121.207 1.60203 121.22 1.60203 121.22H0V125.857H0.716356V123.799H0.963824C1.73228 123.799 2.77425 125.857 2.77425 125.857H3.59481C2.50074 124.151 2.08395 123.682 2.08395 123.682ZM1.21129 123.265H0.716356V121.845H1.18525C1.18525 121.845 2.16209 121.819 2.16209 122.549C2.16209 123.304 1.21129 123.265 1.21129 123.265ZM6.39511 121.233H9.20844V121.845H7.04634V123.226H9.20844V123.851H7.05937V125.258H9.20844V125.87H6.39511V121.233ZM28.6543 121.233H31.4676V121.845H29.3055V123.226H31.4676V123.851H29.3185V125.258H31.4676V125.87H28.6543V121.233ZM59.5748 121.233H62.3881V121.845H60.226V123.226H62.3881V123.851H60.2391V125.258H62.3881V125.87H59.5748V121.233ZM14.4183 121.233H13.9234L11.9436 125.87H12.6209L13.207 124.515H15.1477L15.7598 125.87H16.4762L14.4183 121.233ZM13.5066 123.89L14.1708 122.262L14.8872 123.89H13.5066ZM48.5169 121.233H48.0219L46.0422 125.87H46.7195L47.3056 124.515H49.2462L49.8584 125.87H50.5748L48.5169 121.233ZM47.5921 123.89L48.2564 122.262L48.9727 123.89H47.5921ZM19.3416 121.233H20.0189V125.284H22.2201V125.87H19.3416V121.233ZM40.0118 121.233H44.1536V121.91H42.4343V125.896H41.705V121.897H40.0118V121.233ZM52.4112 121.233H56.5531V121.91H54.8338V125.896H54.1045V121.897H52.4112V121.233Z" fill="#21ADE4"/>
<defs>
<radialGradient id="paint0_radial_312_527" cx="0" cy="0" r="1" gradientUnits="userSpaceOnUse" gradientTransform="translate(25.2931 116.984) scale(13.7454 4.12361)">
<stop stop-opacity="0.95"/>
<stop offset="0.114" stop-color="#030303" stop-opacity="0.86"/>
<stop offset="0.203" stop-color="#0D0D0D" stop-opacity="0.797"/>
<stop offset="0.282" stop-color="#1D1D1D" stop-opacity="0.72"/>
<stop offset="0.357" stop-color="#353535" stop-opacity="0.64"/>
<stop offset="0.429" stop-color="#535353" stop-opacity="0.57"/>
<stop offset="0.497" stop-color="#787878" stop-opacity="0.5"/>
<stop offset="0.563" stop-color="#A3A3A3" stop-opacity="0.43"/>
<stop offset="0.627" stop-color="#BDBDBD" stop-opacity="0.4"/>
<stop offset="0.818" stop-color="#BBBBBB" stop-opacity="0.3"/>
<stop offset="0.936" stop-color="#B4B4B4" stop-opacity="0.2"/>
<stop offset="1" stop-color="#B0B0B0" stop-opacity="0.1"/>
</radialGradient>
<linearGradient id="paint1_linear_312_527" x1="32.4038" y1="0.00247467" x2="32.4038" y2="97.6544" gradientUnits="userSpaceOnUse">
<stop stop-color="#29ADE3"/>
<stop offset="0.44" stop-color="white"/>
<stop offset="1" stop-color="white"/>
</linearGradient>
<linearGradient id="paint2_linear_312_527" x1="38.6261" y1="117.358" x2="38.6261" y2="59.6305" gradientUnits="userSpaceOnUse">
<stop stop-color="#AAACAF"/>
<stop offset="0.42" stop-color="white"/>
<stop offset="1" stop-color="white"/>
</linearGradient>
</defs>
</svg>
