<svg width="86" height="78" viewBox="0 0 86 78" fill="none" xmlns="http://www.w3.org/2000/svg">
<path d="M85.6295 74.7746V77.7778H0.890625V74.7807C0.890623 74.0096 1.19653 73.27 1.74122 72.7242C2.2859 72.1784 3.02488 71.8709 3.79599 71.8693H6.3099C6.30109 71.7717 6.29701 71.6737 6.29767 71.5757V68.8661C6.29928 68.096 6.6059 67.358 7.15041 66.8134C7.69493 66.2689 8.43298 65.9623 9.20304 65.9607H11.7108V43.8372H9.83304C8.93433 43.8372 8.07244 43.4802 7.43696 42.8447C6.80147 42.2092 6.44446 41.3473 6.44446 40.4486C6.44446 39.5499 6.80147 38.688 7.43696 38.0526C8.07244 37.4171 8.93433 37.0601 9.83304 37.0601H76.8889C77.7876 37.0601 78.6495 37.4171 79.285 38.0526C79.9205 38.688 80.2775 39.5499 80.2775 40.4486C80.2775 41.3473 79.9205 42.2092 79.285 42.8447C78.6495 43.4802 77.7876 43.8372 76.8889 43.8372H75.1029V65.9607H77.3171C78.0871 65.9623 78.8252 66.2689 79.3697 66.8134C79.9142 67.358 80.2208 68.096 80.2225 68.8661V71.5757C80.2228 71.6738 80.2167 71.7719 80.2041 71.8693H82.7241C83.4942 71.8709 84.2322 72.1775 84.7767 72.722C85.3213 73.2665 85.6279 74.0046 85.6295 74.7746ZM75.109 31.6959C75.109 23.2896 71.7696 15.2276 65.8254 9.28351C59.8813 3.33938 51.8193 0 43.413 0C35.0067 0 26.9447 3.33938 21.0005 9.28351C15.0563 15.2276 11.7169 23.2896 11.7169 31.6959H75.109ZM18.91 65.9607H25.6933V47.2319C25.6933 46.3324 25.336 45.4697 24.6999 44.8336C24.0638 44.1976 23.2012 43.8403 22.3017 43.8403C21.4021 43.8403 20.5395 44.1976 19.9034 44.8336C19.2674 45.4697 18.91 46.3324 18.91 47.2319V65.9607ZM32.9414 47.2869V65.9607H39.7247V47.2869C39.7247 46.3874 39.3674 45.5247 38.7313 44.8887C38.0952 44.2526 37.2326 43.8953 36.333 43.8953C35.4335 43.8953 34.5709 44.2526 33.9348 44.8887C33.2988 45.5247 32.9414 46.3874 32.9414 47.2869ZM46.9728 47.3359V65.9607H53.7561V47.3359C53.7561 46.4363 53.3988 45.5737 52.7627 44.9376C52.1266 44.3016 51.264 43.9442 50.3644 43.9442C49.4649 43.9442 48.6023 44.3016 47.9662 44.9376C47.3301 45.5737 46.9728 46.4363 46.9728 47.3359ZM61.0042 47.3848V65.9607H67.7875V47.3848C67.7875 46.4853 67.4301 45.6226 66.7941 44.9866C66.158 44.3505 65.2954 43.9932 64.3958 43.9932C63.4963 43.9932 62.6336 44.3505 61.9976 44.9866C61.3615 45.6226 61.0042 46.4853 61.0042 47.3848Z" fill="black"/>
</svg>
