<svg width="115" height="106" viewBox="0 0 115 106" fill="none" xmlns="http://www.w3.org/2000/svg">
<path d="M110.015 39.5028L98.6236 14.8226C99.4543 14.0691 100.12 13.1514 100.577 12.1275C101.035 11.1034 101.275 9.99562 101.282 8.8741C101.275 7.05392 100.649 5.29029 99.5061 3.87329C98.3637 2.4563 96.7727 1.47029 94.9954 1.07753C93.2181 0.684761 91.3602 0.908563 89.727 1.71218C88.0937 2.51576 86.7827 3.85128 86.0093 5.49904L28.4221 20.1382C27.0016 18.9164 25.1909 18.2429 23.3173 18.2399C21.6918 18.2288 20.1018 18.715 18.7604 19.6331C17.4186 20.5511 16.3899 21.8573 15.8115 23.3765C15.2332 24.8957 15.133 26.5556 15.5245 28.1333C15.916 29.7111 16.7801 31.1316 18.0017 32.2041L6.31543 57.517L40.2772 57.3904L28.633 32.0775C29.8739 30.9651 30.7304 29.4882 31.0801 27.8587L51.879 22.5853V87.3862H51.4569L23.3596 96.1195C22.4609 96.4039 21.6752 96.9649 21.1146 97.7226C20.5539 98.4801 20.2471 99.3957 20.2376 100.338V100.634C20.2011 101.227 20.2903 101.821 20.4996 102.377C20.7087 102.933 21.033 103.439 21.4511 103.861C21.8696 104.283 22.372 104.613 22.9265 104.827C23.4807 105.041 24.0739 105.136 24.6673 105.105H91.7047C92.2945 105.136 92.884 105.042 93.4351 104.83C93.9863 104.618 94.4869 104.293 94.9044 103.875C95.3219 103.458 95.6471 102.957 95.8592 102.406C96.0711 101.855 96.1649 101.265 96.1345 100.676V100.338C96.1281 99.4009 95.8274 98.4893 95.2747 97.7325C94.722 96.9753 93.9455 96.411 93.0547 96.1195L64.9995 87.3862H64.5354V19.8854L86.9798 13.9367L87.8234 14.8226L76.3904 39.5871C78.9151 39.5871 107.701 39.5028 110.015 39.5028ZM13.2765 57.517L23.3173 35.748L33.2188 57.4201L13.2765 57.517ZM93.4345 18.3665L103.222 39.4605H83.5202L93.4345 18.3665Z" fill="#333333"/>
<path d="M46.3176 56.7329C46.3176 69.43 36.0243 79.7232 23.3272 79.7232C10.6301 79.7232 0.336914 69.43 0.336914 56.7329C25.6851 56.7335 20.3799 56.7329 46.3176 56.7329Z" fill="#333333"/>
<path fill-rule="evenodd" clip-rule="evenodd" d="M23.3272 73.5924C30.4757 73.5924 36.585 69.1437 39.0376 62.8636C33.1748 62.8636 29.4319 62.8636 26.2498 62.8636C20.9129 62.8639 17.1536 62.8639 7.61707 62.8636C10.0696 69.1437 16.1791 73.5924 23.3272 73.5924ZM1.1634 62.8636C0.624722 60.9119 0.336914 58.856 0.336914 56.7329H6.46767C16.8838 56.7332 20.7204 56.7332 26.2862 56.7329H40.1868H46.3176V56.7412C46.317 58.8612 46.0291 60.9144 45.4912 62.8636C42.808 72.5845 33.9013 79.7232 23.3272 79.7232C12.7531 79.7232 3.84638 72.5845 1.1634 62.8636Z" fill="#333333"/>
<path d="M115 39.2461C115 51.9434 104.707 62.2363 92.0094 62.2363C79.312 62.2363 69.019 51.9434 69.019 39.2461C94.3673 39.2467 89.0617 39.2461 115 39.2461Z" fill="#333333"/>
<path fill-rule="evenodd" clip-rule="evenodd" d="M92.0094 56.1056C99.1579 56.1056 105.267 51.6568 107.719 45.3768C101.857 45.3768 98.1141 45.3771 94.9319 45.3771C89.5951 45.3771 85.8354 45.3771 76.299 45.3771C78.7516 51.6568 84.8609 56.1056 92.0094 56.1056ZM69.8455 45.3768C69.3069 43.4251 69.019 41.3692 69.019 39.2461C71.2948 39.2461 73.3234 39.2464 75.1498 39.2464H94.9684C98.3458 39.2464 102.361 39.2461 108.869 39.2461H115V39.2544C114.999 41.3747 114.711 43.4276 114.173 45.3768C111.49 55.0977 102.583 62.2363 92.0094 62.2363C81.4351 62.2363 72.5283 55.0977 69.8455 45.3768Z" fill="#333333"/>
</svg>
