<svg width="96" height="96" viewBox="0 0 96 96" fill="none" xmlns="http://www.w3.org/2000/svg">
<path d="M88 67.68V79.68C88.0045 80.794 87.7763 81.8967 87.33 82.9174C86.8838 83.9381 86.2292 84.8544 85.4083 85.6075C84.5874 86.3606 83.6183 86.934 82.563 87.2908C81.5077 87.6477 80.3895 87.7803 79.28 87.68C66.9713 86.3426 55.148 82.1366 44.76 75.4C35.0953 69.2587 26.9014 61.0647 20.76 51.4C13.9999 40.9648 9.79298 29.084 8.48001 16.72C8.38005 15.6139 8.51151 14.4991 8.86601 13.4465C9.22051 12.394 9.79029 11.4268 10.5391 10.6065C11.2879 9.78623 12.1992 9.13086 13.2152 8.68211C14.2311 8.23336 15.3294 8.00107 16.44 8.00002H28.44C30.3812 7.98092 32.2632 8.66834 33.7351 9.93415C35.2069 11.2 36.1683 12.9578 36.44 14.88C36.9465 18.7203 37.8858 22.4909 39.24 26.12C39.7782 27.5517 39.8947 29.1077 39.5756 30.6035C39.2566 32.0994 38.5155 33.4725 37.44 34.56L32.36 39.64C38.0542 49.6542 46.3458 57.9458 56.36 63.64L61.44 58.56C62.5276 57.4846 63.9006 56.7434 65.3965 56.4244C66.8923 56.1054 68.4483 56.2218 69.88 56.76C73.5091 58.1142 77.2797 59.0535 81.12 59.56C83.0631 59.8341 84.8376 60.8128 86.1061 62.31C87.3747 63.8072 88.0487 65.7183 88 67.68Z" stroke="#A96600" stroke-width="2" stroke-linecap="round" stroke-linejoin="round"/>
</svg>
